<svg width="150" height="150" viewBox="0 0 150 150" fill="none" xmlns="http://www.w3.org/2000/svg">
<path d="M75 137.5C109.518 137.5 137.5 109.518 137.5 75C137.5 40.4822 109.518 12.5 75 12.5C40.4822 12.5 12.5 40.4822 12.5 75C12.5 109.518 40.4822 137.5 75 137.5Z" stroke="white" stroke-width="2" stroke-linecap="round" stroke-linejoin="round"/>
<path d="M103.571 30.5557H89.8807C83.8292 30.5557 78.0255 32.9596 73.7464 37.2387C69.4673 41.5178 67.0633 47.3216 67.0633 53.3731V67.0636H53.3728V85.3176H67.0633V121.826H85.3172V85.3176H99.0077L103.571 67.0636H85.3172V53.3731C85.3172 52.1628 85.798 51.0021 86.6539 50.1462C87.5097 49.2904 88.6704 48.8096 89.8807 48.8096H103.571V30.5557Z" fill="white" stroke="white" stroke-width="2" stroke-linecap="round" stroke-linejoin="round"/>
</svg>
